<?xml version="1.0" encoding="utf-8"?>
<!-- Generator: Adobe Illustrator 16.0.0, SVG Export Plug-In . SVG Version: 6.00 Build 0)  -->
<!DOCTYPE svg PUBLIC "-//W3C//DTD SVG 1.1//EN" "http://www.w3.org/Graphics/SVG/1.1/DTD/svg11.dtd">
<svg version="1.1" xmlns="http://www.w3.org/2000/svg" xmlns:xlink="http://www.w3.org/1999/xlink" x="0px" y="0px"
	 width="182.857px" height="179.125px" viewBox="0 0 182.857 179.125" enable-background="new 0 0 182.857 179.125"
	 xml:space="preserve">
<g id="Layer_3">
	<rect x="-346.576" y="-23.398" width="231" height="220.5"/>
</g>
<g id="Layer_4">
	<g>
		<path fill="#FFFFFF" d="M170.829,52.554h-2.576c5.423,11.209,8.466,23.784,8.466,37.071c0,47.074-38.161,85.234-85.234,85.234
			S6.25,136.699,6.25,89.625c0-13.287,3.043-25.862,8.466-37.071h-2.591c-5.269,11.259-8.218,23.82-8.218,37.071
			c0,48.364,39.207,87.57,87.57,87.57c48.364,0,87.57-39.206,87.57-87.57C179.047,76.374,176.098,63.812,170.829,52.554z"/>
		<path fill="#FFFFFF" d="M155.139,29.5h-3.247c6.107,6.136,11.269,13.206,15.29,20.962h2.635
			C165.957,42.758,160.997,35.701,155.139,29.5z"/>
		<path fill="#FFFFFF" d="M33.235,27.43C48.476,13.15,68.952,4.391,91.484,4.391c22.521,0,42.989,8.75,58.228,23.018h3.385
			c-15.823-15.672-37.59-25.354-61.62-25.354c-24.041,0-45.816,9.69-61.641,25.375H33.235z"/>
		<path fill="#FFFFFF" d="M27.795,29.521c-5.85,6.196-10.803,13.245-14.658,20.941h2.65c4.017-7.749,9.171-14.811,15.27-20.941
			H27.795z"/>
	</g>
	<rect x="20.917" y="38.511" fill="#060304" width="4" height="4.208"/>
	<rect x="158.167" y="38.511" fill="#060304" width="4" height="4.208"/>
</g>
<g id="Layer_1">
	<g>
		<polyline fill="none" stroke="#FFFFFF" stroke-width="9" stroke-miterlimit="10" points="16.47,50.462 16.47,34.014 166.5,34.014 
			166.5,50.462 		"/>
		
			<line fill="none" stroke="#FFFFFF" stroke-width="9.1946" stroke-miterlimit="10" x1="72.439" y1="153.057" x2="109.408" y2="153.057"/>
		
			<line fill="none" stroke="#FFFFFF" stroke-width="9.0352" stroke-miterlimit="10" x1="91.477" y1="31.749" x2="91.477" y2="84.042"/>
		
			<line fill="none" stroke="#FFFFFF" stroke-width="9.0465" stroke-miterlimit="10" x1="91.383" y1="100.709" x2="91.383" y2="155.193"/>
		
			<line fill="none" stroke="#FFFFFF" stroke-width="9.1946" stroke-miterlimit="10" x1="50.677" y1="59.064" x2="50.677" y2="126.982"/>
		
			<line fill="none" stroke="#FFFFFF" stroke-width="9.1946" stroke-miterlimit="10" x1="51.744" y1="92.352" x2="128.162" y2="92.352"/>
		
			<line fill="none" stroke="#FFFFFF" stroke-width="9.0966" stroke-miterlimit="10" x1="38.236" y1="127.109" x2="83.333" y2="127.109"/>
		<path fill="none" stroke="#FFFFFF" stroke-width="9.095" stroke-miterlimit="10" d="M99.162,59.333c0,0,16.605-0.19,23.549-0.106
			c9.1,0.815,16.829,7.619,16.829,17.444c0,12.606-11.56,15.757-11.56,15.757s16.584,4.203,16.584,19.964
			c0,15.756-16.584,14.704-16.584,14.704l-28.818,0.014"/>
		
			<line fill="none" stroke="#FFFFFF" stroke-width="9.0966" stroke-miterlimit="10" x1="38.236" y1="59.333" x2="83.333" y2="59.333"/>
		<path fill="#FFFFFF" d="M20.917,41.125c0,0,0.417-2.333,2-2.667s-2.583-2.25-2.583-2.25l-1.097,3.907L20.917,41.125z"/>
		<path fill="#FFFFFF" d="M162.525,41.125c0,0-0.416-2.333-2-2.667c-1.583-0.333,2.584-2.25,2.584-2.25l1.096,3.907L162.525,41.125z
			"/>
	</g>
</g>
</svg>
