<?xml version="1.0" encoding="utf-8"?>
<!-- Generator: Adobe Illustrator 16.0.0, SVG Export Plug-In . SVG Version: 6.00 Build 0)  -->
<!DOCTYPE svg PUBLIC "-//W3C//DTD SVG 1.1//EN" "http://www.w3.org/Graphics/SVG/1.1/DTD/svg11.dtd">
<svg version="1.1" xmlns="http://www.w3.org/2000/svg" xmlns:xlink="http://www.w3.org/1999/xlink" x="0px" y="0px" width="216px"
	 height="211.533px" viewBox="0 0 216 211.533" enable-background="new 0 0 216 211.533" xml:space="preserve">
<g id="Layer_3">
	<text transform="matrix(1 0 0 1 48.0186 206)" fill="#FFFFFF" font-family="'Roboto-Medium'" font-size="20">TYLER BECK</text>
</g>
<g id="Layer_4">
	<g>
		<path fill="#FFFFFF" d="M186.829,55.679h-2.576c5.423,11.209,8.466,23.784,8.466,37.071c0,47.074-38.161,85.234-85.234,85.234
			S22.25,139.824,22.25,92.75c0-13.287,3.043-25.862,8.466-37.071h-2.591c-5.269,11.259-8.218,23.82-8.218,37.071
			c0,48.364,39.207,87.57,87.57,87.57c48.364,0,87.57-39.206,87.57-87.57C195.047,79.499,192.098,66.938,186.829,55.679z"/>
		<path fill="#FFFFFF" d="M171.139,32.625h-3.247c6.107,6.136,11.269,13.206,15.29,20.962h2.635
			C181.957,45.883,176.997,38.826,171.139,32.625z"/>
		<path fill="#FFFFFF" d="M49.235,30.555c15.241-14.28,35.717-23.039,58.25-23.039c22.521,0,42.989,8.75,58.228,23.018h3.385
			c-15.823-15.672-37.59-25.354-61.62-25.354c-24.041,0-45.816,9.69-61.641,25.375H49.235z"/>
		<path fill="#FFFFFF" d="M43.795,32.646c-5.85,6.196-10.803,13.245-14.658,20.941h2.65c4.017-7.749,9.171-14.811,15.27-20.941
			H43.795z"/>
	</g>
	<rect x="36.917" y="41.636" fill="#060304" width="4" height="4.208"/>
	<rect x="174.167" y="41.636" fill="#060304" width="4" height="4.208"/>
</g>
<g id="Layer_1">
	<g>
		<polyline fill="none" stroke="#FFFFFF" stroke-width="9" stroke-miterlimit="10" points="32.47,53.587 32.47,37.139 182.5,37.139 
			182.5,53.587 		"/>
		
			<line fill="none" stroke="#FFFFFF" stroke-width="9.1946" stroke-miterlimit="10" x1="88.439" y1="156.182" x2="125.408" y2="156.182"/>
		
			<line fill="none" stroke="#FFFFFF" stroke-width="9.0352" stroke-miterlimit="10" x1="107.477" y1="34.874" x2="107.477" y2="87.167"/>
		
			<line fill="none" stroke="#FFFFFF" stroke-width="9.0465" stroke-miterlimit="10" x1="107.383" y1="103.834" x2="107.383" y2="158.318"/>
		
			<line fill="none" stroke="#FFFFFF" stroke-width="9.1946" stroke-miterlimit="10" x1="66.677" y1="62.189" x2="66.677" y2="130.107"/>
		
			<line fill="none" stroke="#FFFFFF" stroke-width="9.1946" stroke-miterlimit="10" x1="67.744" y1="95.477" x2="144.162" y2="95.477"/>
		
			<line fill="none" stroke="#FFFFFF" stroke-width="9.0966" stroke-miterlimit="10" x1="54.236" y1="130.234" x2="99.333" y2="130.234"/>
		<path fill="none" stroke="#FFFFFF" stroke-width="9.095" stroke-miterlimit="10" d="M115.162,62.458c0,0,16.605-0.19,23.549-0.106
			c9.1,0.815,16.829,7.619,16.829,17.444c0,12.606-11.56,15.757-11.56,15.757s16.584,4.203,16.584,19.964
			c0,15.756-16.584,14.704-16.584,14.704l-28.818,0.014"/>
		
			<line fill="none" stroke="#FFFFFF" stroke-width="9.0966" stroke-miterlimit="10" x1="54.236" y1="62.458" x2="99.333" y2="62.458"/>
		<path fill="#FFFFFF" d="M36.917,44.25c0,0,0.417-2.333,2-2.667s-2.583-2.25-2.583-2.25l-1.097,3.907L36.917,44.25z"/>
		<path fill="#FFFFFF" d="M178.525,44.25c0,0-0.416-2.333-2-2.667c-1.583-0.333,2.584-2.25,2.584-2.25l1.096,3.907L178.525,44.25z"
			/>
	</g>
</g>
</svg>
