<?xml version="1.0" encoding="utf-8"?>
<!-- Generator: Adobe Illustrator 16.0.0, SVG Export Plug-In . SVG Version: 6.00 Build 0)  -->
<!DOCTYPE svg PUBLIC "-//W3C//DTD SVG 1.1//EN" "http://www.w3.org/Graphics/SVG/1.1/DTD/svg11.dtd">
<svg version="1.1" id="Layer_1" xmlns="http://www.w3.org/2000/svg" xmlns:xlink="http://www.w3.org/1999/xlink" x="0px" y="0px"
	 width="216px" height="211.533px" viewBox="0 0 216 211.533" enable-background="new 0 0 216 211.533" xml:space="preserve">
<g id="Layer_3">
	<g enable-background="new    ">
		<path fill="#FFFFFF" stroke="#FFFFFF" stroke-width="0.75" stroke-miterlimit="10" d="M59.288,193.687h-4.297V206h-2.373v-12.313
			h-4.297v-1.903h10.967V193.687z"/>
		<path fill="#FFFFFF" stroke="#FFFFFF" stroke-width="0.75" stroke-miterlimit="10" d="M65.948,198.694l3.438-6.913h2.646
			L67.1,201.01V206h-2.363v-5.117l-4.854-9.102h2.646L65.948,198.694z"/>
		<path fill="#FFFFFF" stroke="#FFFFFF" stroke-width="0.75" stroke-miterlimit="10" d="M76.085,204.097h6.533V206h-8.906v-14.219
			h2.373V204.097z"/>
		<path fill="#FFFFFF" stroke="#FFFFFF" stroke-width="0.75" stroke-miterlimit="10" d="M93.126,199.604h-6.221v4.492h7.217V206
			h-9.59v-14.219h9.521v1.903h-7.148v4.015h6.221V199.604z"/>
		<path fill="#FFFFFF" stroke="#FFFFFF" stroke-width="0.75" stroke-miterlimit="10" d="M98.497,200.103V206h-2.373v-14.219h5.254
			c1.588,0,2.816,0.358,3.682,1.073c0.866,0.717,1.299,1.737,1.299,3.065c0,0.735-0.19,1.369-0.571,1.897
			c-0.381,0.531-0.936,0.955-1.665,1.274c0.801,0.255,1.377,0.669,1.729,1.245s0.527,1.284,0.527,2.124v1.183
			c0,0.416,0.052,0.822,0.156,1.222s0.28,0.698,0.527,0.907V206h-2.441c-0.26-0.215-0.428-0.554-0.503-1.017
			c-0.075-0.461-0.112-0.914-0.112-1.356v-1.144c0-0.729-0.208-1.31-0.625-1.737c-0.417-0.429-0.99-0.646-1.719-0.646h-3.165
			V200.103z M98.497,198.197h2.754c0.951,0,1.644-0.183,2.08-0.548c0.436-0.363,0.654-0.92,0.654-1.67
			c0-0.715-0.215-1.276-0.645-1.686c-0.43-0.406-1.084-0.609-1.963-0.609h-2.881L98.497,198.197L98.497,198.197z"/>
		<path fill="#FFFFFF" stroke="#FFFFFF" stroke-width="0.75" stroke-miterlimit="10" d="M114.348,206v-14.219h4.728
			c1.573,0,2.806,0.323,3.69,0.972s1.327,1.616,1.327,2.905c0,0.646-0.186,1.221-0.557,1.729c-0.371,0.508-0.886,0.885-1.543,1.133
			c0.847,0.188,1.497,0.596,1.952,1.221c0.457,0.625,0.685,1.351,0.685,2.178c0,1.335-0.437,2.35-1.31,3.042
			c-0.871,0.692-2.076,1.04-3.612,1.04L114.348,206L114.348,206z M116.721,197.769h2.616c0.735,0,1.317-0.175,1.743-0.521
			c0.426-0.35,0.641-0.844,0.641-1.479c0-0.703-0.226-1.227-0.675-1.566c-0.448-0.342-1.106-0.514-1.973-0.514h-2.354v4.082h0.002
			V197.769z M116.721,199.535v4.562h2.987c0.819,0,1.452-0.188,1.896-0.562c0.441-0.373,0.664-0.914,0.664-1.622
			c0-0.754-0.187-1.339-0.558-1.754c-0.371-0.416-0.95-0.624-1.737-0.624H116.721L116.721,199.535z"/>
		<path fill="#FFFFFF" stroke="#FFFFFF" stroke-width="0.75" stroke-miterlimit="10" d="M135.753,199.604h-6.221v4.492h7.217V206
			h-9.59v-14.219h9.521v1.903h-7.146v4.015h6.221L135.753,199.604L135.753,199.604z"/>
		<path fill="#FFFFFF" stroke="#FFFFFF" stroke-width="0.75" stroke-miterlimit="10" d="M149.122,201.283l0.021,0.059
			c0.025,1.438-0.439,2.609-1.4,3.511c-0.963,0.902-2.262,1.354-3.901,1.354c-1.659,0-3.009-0.56-4.048-1.675
			c-1.039-1.116-1.559-2.545-1.559-4.282v-2.705c0-1.729,0.514-3.159,1.537-4.28c1.025-1.123,2.358-1.687,4-1.687
			c1.681,0,3.002,0.44,3.971,1.321c0.967,0.884,1.438,2.068,1.41,3.562l-0.021,0.06h-2.295c0-0.957-0.259-1.701-0.776-2.235
			c-0.517-0.534-1.281-0.802-2.289-0.802c-0.971,0-1.738,0.385-2.311,1.15c-0.57,0.768-0.854,1.73-0.854,2.889v2.724
			c0,1.171,0.291,2.14,0.873,2.907c0.582,0.767,1.369,1.15,2.357,1.15c0.982,0,1.729-0.264,2.236-0.787
			c0.508-0.526,0.762-1.271,0.762-2.229h2.285L149.122,201.283L149.122,201.283z"/>
		<path fill="#FFFFFF" stroke="#FFFFFF" stroke-width="0.75" stroke-miterlimit="10" d="M155.479,199.849h-1.641V206h-2.373v-14.219
			h2.373v6.024h1.357l4.463-6.024h2.812l-5.178,6.786L162.87,206h-2.899L155.479,199.849z"/>
	</g>
</g>
<g id="Layer_4">
	<g>
		<path fill="#FFFFFF" d="M186.829,55.679h-2.576c5.423,11.209,8.466,23.784,8.466,37.071c0,47.074-38.16,85.233-85.234,85.233
			c-47.073,0-85.235-38.159-85.235-85.233c0-13.287,3.043-25.862,8.466-37.071h-2.591c-5.269,11.259-8.218,23.82-8.218,37.071
			c0,48.364,39.207,87.569,87.57,87.569c48.364,0,87.57-39.205,87.57-87.569C195.047,79.499,192.098,66.938,186.829,55.679z"/>
		<path fill="#FFFFFF" d="M171.139,32.625h-3.246c6.106,6.136,11.271,13.206,15.289,20.962h2.635
			C181.957,45.883,176.997,38.826,171.139,32.625z"/>
		<path fill="#FFFFFF" d="M49.235,30.555c15.241-14.28,35.717-23.039,58.25-23.039c22.521,0,42.99,8.75,58.228,23.018h3.385
			c-15.822-15.672-37.59-25.354-61.62-25.354c-24.041,0-45.816,9.69-61.641,25.375H49.235z"/>
		<path fill="#FFFFFF" d="M43.795,32.646c-5.85,6.196-10.803,13.245-14.658,20.941h2.65c4.017-7.749,9.171-14.811,15.27-20.941
			H43.795z"/>
	</g>
	<rect x="36.917" y="41.636" fill="#060304" width="4" height="4.208"/>
	<rect x="174.167" y="41.636" fill="#060304" width="4" height="4.208"/>
</g>
<g id="Layer_1_1_">
	<g>
		<polyline fill="none" stroke="#FFFFFF" stroke-width="9" stroke-miterlimit="10" points="32.47,53.587 32.47,37.139 182.5,37.139 
			182.5,53.587 		"/>
		
			<line fill="none" stroke="#FFFFFF" stroke-width="9.1946" stroke-miterlimit="10" x1="88.439" y1="156.183" x2="125.408" y2="156.183"/>
		
			<line fill="none" stroke="#FFFFFF" stroke-width="9.0352" stroke-miterlimit="10" x1="107.477" y1="34.874" x2="107.477" y2="87.167"/>
		
			<line fill="none" stroke="#FFFFFF" stroke-width="9.0465" stroke-miterlimit="10" x1="107.383" y1="103.834" x2="107.383" y2="158.317"/>
		
			<line fill="none" stroke="#FFFFFF" stroke-width="9.1946" stroke-miterlimit="10" x1="66.677" y1="62.189" x2="66.677" y2="130.106"/>
		
			<line fill="none" stroke="#FFFFFF" stroke-width="9.1946" stroke-miterlimit="10" x1="67.744" y1="95.477" x2="144.162" y2="95.477"/>
		
			<line fill="none" stroke="#FFFFFF" stroke-width="9.0966" stroke-miterlimit="10" x1="54.236" y1="130.233" x2="99.333" y2="130.233"/>
		<path fill="none" stroke="#FFFFFF" stroke-width="9.095" stroke-miterlimit="10" d="M115.162,62.458c0,0,16.605-0.19,23.549-0.106
			c9.1,0.815,16.829,7.619,16.829,17.444c0,12.606-11.56,15.757-11.56,15.757s16.584,4.203,16.584,19.963
			c0,15.756-16.584,14.705-16.584,14.705l-28.818,0.014"/>
		
			<line fill="none" stroke="#FFFFFF" stroke-width="9.0966" stroke-miterlimit="10" x1="54.236" y1="62.458" x2="99.333" y2="62.458"/>
		<path fill="#FFFFFF" d="M36.917,44.25c0,0,0.417-2.333,2-2.667s-2.583-2.25-2.583-2.25l-1.097,3.907L36.917,44.25z"/>
		<path fill="#FFFFFF" d="M178.525,44.25c0,0-0.416-2.333-2-2.667c-1.584-0.333,2.584-2.25,2.584-2.25l1.096,3.907L178.525,44.25z"
			/>
	</g>
</g>
</svg>
